<svg xmlns="http://www.w3.org/2000/svg" fill="#c2410c" viewBox="0 0 64 64" id="immunity"><g data-name="Outline"><path d="M32.72 2.31a1 1 0 0 0-1.44 0C28.27 5.44 14 8.94 8.8 10a1 1 0 0 0-.8 1v26c0 13.73 22.61 24.46 23.58 24.91a1 1 0 0 0 .84 0C33.39 61.46 56 50.73 56 37V11a1 1 0 0 0-.8-1C50 8.94 35.73 5.44 32.72 2.31ZM54 37c0 11.5-18.91 21.35-22 22.89C28.91 58.35 10 48.5 10 37V11.81c3.53-.81 17.4-3.95 22-7.48 4.6 3.53 18.47 6.67 22 7.48Z"></path><path d="M31.51 7c-5 2.84-13.9 5.12-18.73 6.24a1 1 0 0 0-.78 1V37c0 9.86 17.54 19.36 19.54 20.42a1 1 0 0 0 .93 0C34.47 56.37 52 46.89 52 37V14.22a1 1 0 0 0-.78-1C46.39 12.13 37.53 9.85 32.49 7a1 1 0 0 0-.98 0ZM50 15v22c0 6.92-11.09 14.7-18 18.4-6.9-3.72-18-11.51-18-18.4V15c5.75-1.35 13.19-3.42 18-6 4.81 2.59 12.25 4.66 18 6Z"></path><path d="M32.6 13.75c1.22.54 2.85 1.18 4.35 1.72a1 1 0 0 0 1.28-.61 1 1 0 0 0-.6-1.28 69.68 69.68 0 0 1-4.23-1.66 1 1 0 0 0-1.31.51 1 1 0 0 0 .51 1.32zm8.69 8.54-8 8A1 1 0 0 0 33 31v13a1 1 0 0 0 2 0V31.41l7.71-7.7a1 1 0 0 0-1.42-1.42z"></path><path d="M37.29 33.71a1 1 0 0 0 1.42 0l7-7a1 1 0 0 0-1.42-1.42l-7 7a1 1 0 0 0 0 1.42zM22.71 22.29a1 1 0 0 0-1.42 1.42l7.71 7.7V44a1 1 0 0 0 2 0V31a1 1 0 0 0-.29-.71z"></path><path d="M19.71 25.29a1 1 0 0 0-1.42 1.42l7 7a1 1 0 0 0 1.42-1.42Z"></path><circle cx="41" cy="16" r="1"></circle></g></svg>