<?xml version="1.0" ?><svg viewBox="0 0 64 64" style="fill: #b91c1c" xmlns="http://www.w3.org/2000/svg"><title/><g id="Outline"><path d="M54.707,53.293l-3.1748-3.1748L52.1,40.4648a4.95,4.95,0,0,0-1.4414-3.7915L28.1675,14.1816a4.9585,4.9585,0,0,0-7.0015,0l-2.7851,2.7852L15.6045,14.19l3.4834-3.4834a1,1,0,1,0-1.4141-1.414L9.293,17.6738a1,1,0,1,0,1.414,1.4141L14.19,15.6045l2.7764,2.7764L14.1816,21.166a4.9577,4.9577,0,0,0,0,7.0015L30.9438,44.9292a1,1,0,0,0,1.4141-1.4141L15.5957,26.7534a2.9556,2.9556,0,0,1,0-4.1733L22.58,15.5957a2.9565,2.9565,0,0,1,4.1733,0l3.4836,3.4837L26.7534,22.563a1,1,0,0,0,0,1.4141l2.0952,2.0952a1,1,0,0,0,1.4141-1.4141L28.8745,23.27l2.7765-2.7765L44.205,33.048l-2.7763,2.7762-8.3725-8.3725a1,1,0,1,0-1.4141,1.414l9.08,9.08a.9995.9995,0,0,0,1.414,0l3.4833-3.4832,3.6256,3.6258a2.951,2.951,0,0,1,.8594,2.26l-.5425,9.2138-9.2138.5425a2.9413,2.9413,0,0,1-2.26-.8594l-1.51-1.51a1,1,0,0,0-1.414,1.414l1.5093,1.51a4.9536,4.9536,0,0,0,3.5014,1.45q.145,0,.29-.0088l9.6534-.5679L53.293,54.707a1,1,0,0,0,1.414-1.414Z"/></g></svg>