<svg xmlns="http://www.w3.org/2000/svg" enable-background="new 0 0 1080 1080" viewBox="0 0 1080 1080" id="ultrasound" fill="#be185d"><path d="M183.5,731.4h53.9v38.4c0,51,41.5,92.5,92.5,92.5h209.5c3.9,21.1,22.5,37.2,44.7,37.2h166.1c15.5,24.6,42.7,39.7,72,39.7
		c46.9,0,85.1-38.2,85.1-85.2c0-46.9-38.2-85.1-85.1-85.1c-29.3,0-56.4,15.1-72,39.6H584.1c-22.2,0-40.8,16-44.7,37.2H329.9
		c-41.8,0-75.9-34-75.9-75.9v-38.4h642.4c24,0,43.6-19.6,43.6-43.6V184.3c0-24-19.6-43.5-43.6-43.5h-713c-24,0-43.5,19.5-43.5,43.5
		v503.5C140,711.8,159.5,731.4,183.5,731.4z M890.7,854c0,35-26.3,63.8-60.1,68V786.1C864.4,790.2,890.7,819.1,890.7,854z
		 M584.1,825.2H755c3,0,5.8-1.6,7.3-4.3c10.7-19.3,30-32.1,51.6-34.8V922c-21.6-2.7-40.9-15.5-51.6-34.8c-1.5-2.7-4.3-4.3-7.3-4.3
		H584.1c-15.9,0-28.8-12.9-28.8-28.8C555.3,838.1,568.2,825.2,584.1,825.2z M156.7,184.3c0-14.8,12-26.8,26.8-26.8h713
		c14.8,0,26.9,12,26.9,26.8v503.5c0,14.8-12.1,26.9-26.9,26.9h-713c-14.8,0-26.8-12.1-26.8-26.9V184.3z"></path><path d="M229.1,673.1h621.7c17,0,30.8-13.8,30.8-30.8V229.9c0-17-13.8-30.8-30.8-30.8H229.1c-17,0-30.8,13.8-30.8,30.8v412.3
		C198.3,659.2,212.2,673.1,229.1,673.1z M215,229.9c0-7.8,6.3-14.1,14.1-14.1h621.7c7.8,0,14.1,6.3,14.1,14.1v412.3
		c0,7.8-6.3,14.1-14.1,14.1H229.1c-7.8,0-14.1-6.3-14.1-14.1V229.9z"></path><path d="M269.3,520.7c89.8,69.4,180.2,104.1,270.7,104.1c90.4,0,180.9-34.7,270.7-104.1c11-8.5,17.8-21.4,18.7-35.4
		c0.9-14.3-4.4-28.2-14.4-38.3L629.5,261.6c-9.3-9.3-21.7-14.5-34.9-14.5H485.4c-13.2,0-25.6,5.1-34.9,14.5L265.1,447
		c-10.1,10.1-15.3,24-14.4,38.3C251.5,499.3,258.3,512.2,269.3,520.7z M276.8,458.8l185.4-185.4c6.2-6.2,14.4-9.6,23.1-9.6h109.2
		c8.7,0,17,3.4,23.1,9.6l185.4,185.4c6.7,6.7,10.2,16,9.6,25.5c-0.6,9.4-5,17.6-12.3,23.3c-172.8,133.6-348.1,133.6-520.9,0
		c-7.3-5.7-11.7-13.9-12.3-23.3C266.6,474.7,270.1,465.5,276.8,458.8z"></path><path d="M540,544.1c59.3,0,120.9-20.3,182.9-60.4c2.1-1.4,3.5-3.6,3.8-6.1c0.3-2.5-0.6-5-2.4-6.8L583.9,330.5
		c-1.6-1.6-3.7-2.4-5.9-2.4h-76.1c-2.2,0-4.3,0.9-5.9,2.4L355.7,470.9c-1.8,1.8-2.7,4.3-2.4,6.8c0.3,2.5,1.6,4.8,3.8,6.1
		C419.1,523.8,480.7,544.1,540,544.1z M505.4,344.8h69.2l130.5,130.5c-56.3,34.6-111.8,52.2-165.1,52.2
		c-53.3,0-108.8-17.5-165.1-52.2L505.4,344.8z"></path></svg>