<?xml version="1.0" ?><svg data-name="Layer 1" id="Layer_1" viewBox="0 0 512 512" xmlns="http://www.w3.org/2000/svg" fill="#0369a1"><path d="M476.78,283.43H407.5V270.51a51.8,51.8,0,0,0-41.25-50.57L285.08,203.3a75.76,75.76,0,0,0,46.59-69.84V116.35a75.67,75.67,0,0,0-151.34,0v17.11a75.76,75.76,0,0,0,46.59,69.84l-81.17,16.64a51.8,51.8,0,0,0-41.25,50.57v12.92H35.22a5.83,5.83,0,0,0-5.83,5.82V465.49a5.83,5.83,0,0,0,11.66,0V295.08h81.27V366L110.25,378a5.84,5.84,0,1,0,8.26,8.26l9.64-9.66,9.62,9.64a5.83,5.83,0,1,0,8.26-8.23L134,366s0,0,0-.05V295.08h35.81a5.82,5.82,0,0,0-.95,6.82c.44.8,11,20,33,24a45.52,45.52,0,0,0,8.1.71c12.66,0,26.11-5.15,40.19-15.38v24.1c-17,14.37-32.6,20.39-46.08,18-16.51-2.93-24.92-18-25-18.14a5.83,5.83,0,0,0-10.26,5.54c.44.8,11,20,33,24,15,2.72,31.19-2.22,48.29-14.66v24.5c-17,14.38-32.55,20.47-46.09,18-16.5-2.93-24.91-18-25-18.13a5.88,5.88,0,0,0-7.91-2.33,5.81,5.81,0,0,0-2.35,7.87c.44.81,11,20,33,24a44.61,44.61,0,0,0,8.1.72c12.66,0,26.11-5.15,40.19-15.39v59.69a17.85,17.85,0,0,1-11.9-5.48c-12.47-13.39-33.68-15.69-46.3-5-12.37,10.44-10.73,26.75-10.66,27.44a5.84,5.84,0,0,0,5.79,5.17c.21,0,.41,0,.62,0a5.84,5.84,0,0,0,5.19-6.39c0-.1-1-10.91,6.59-17.3,7.86-6.63,22-4.76,30.24,4.08,9.56,10.24,22.39,9.5,26.27,9,3.9.51,16.71,1.24,26.25-9,8.22-8.86,22.35-10.74,30.24-4.08,7.56,6.39,6.61,17.2,6.59,17.27a5.83,5.83,0,0,0,5.16,6.44l.64,0a5.84,5.84,0,0,0,5.8-5.19c.07-.69,1.71-17-10.66-27.44-12.64-10.67-33.84-8.37-46.3,5a17.85,17.85,0,0,1-11.9,5.48V389.5c14.08,10.24,27.53,15.39,40.19,15.39a45.52,45.52,0,0,0,8.1-.72c22.05-4,32.6-23.23,33-24a5.83,5.83,0,0,0-10.26-5.54c-.07.16-8.48,15.2-25,18.13-13.57,2.42-29.05-3.65-46.09-18v-24.5c17.1,12.44,33.22,17.39,48.29,14.66,22.05-4,32.6-23.24,33-24a5.83,5.83,0,1,0-10.26-5.52c-.09.15-8.27,15.08-24.86,18.09-13.59,2.54-29.11-3.59-46.21-18v-24.1c14.08,10.23,27.53,15.38,40.19,15.38a46.47,46.47,0,0,0,8.1-.71c22.05-4,32.6-23.24,33-24a5.82,5.82,0,0,0-1-6.82H378V366L366,378a5.84,5.84,0,0,0,8.26,8.26l9.64-9.66,9.62,9.64a5.83,5.83,0,1,0,8.26-8.23L389.69,366s0,0,0-.05V295.08H471V465.49a5.83,5.83,0,1,0,11.66,0V289.25A5.83,5.83,0,0,0,476.78,283.43ZM192,133.46V116.35a64,64,0,0,1,128,0v17.11a64.07,64.07,0,0,1-63.59,64,3.09,3.09,0,0,0-.43,0,3.2,3.2,0,0,0-.44,0A64.08,64.08,0,0,1,192,133.46Zm-75.82,137a40.11,40.11,0,0,1,31.93-39.16L256,209.24l107.91,22.11a40.11,40.11,0,0,1,31.93,39.16v12.92H116.16Zm87.92,44c-16.5-2.93-24.91-18-25-18.12a5.83,5.83,0,0,0-.95-1.28h72v1.37C233.12,310.83,217.62,316.9,204.08,314.48ZM332.9,296.36c-.07.15-8.48,15.19-25,18.12-13.57,2.41-29.05-3.67-46.09-18v-1.37h72A5.87,5.87,0,0,0,332.9,296.36Z"/><path d="M128.15,401.79a5.83,5.83,0,0,0-5.83,5.83v57.87a5.83,5.83,0,1,0,11.66,0V407.62A5.83,5.83,0,0,0,128.15,401.79Z"/><path d="M383.87,401.79a5.83,5.83,0,0,0-5.83,5.83v57.87a5.83,5.83,0,0,0,11.66,0V407.62A5.83,5.83,0,0,0,383.87,401.79Z"/></svg>