<?xml version="1.0" ?><svg viewBox="0 0 64 64" xmlns="http://www.w3.org/2000/svg"><title/><g id="Outline"><path d="M43.32,54.9878a11.635,11.635,0,0,1-8.2539-3.4136l-1.2578-1.2578a1,1,0,0,1,1.4141-1.4141L36.4805,50.16a9.673,9.673,0,1,0,13.68-13.68L27.52,13.84A9.673,9.673,0,0,0,13.84,27.52L31.4492,45.1289a1,1,0,0,1-1.414,1.4141L12.4258,28.9336A11.6728,11.6728,0,0,1,28.9336,12.4258L51.5742,35.0664A11.6675,11.6675,0,0,1,43.32,54.9878Z"/><path d="M37.5181,45.7964a2.9638,2.9638,0,0,1-2.07-.8921L19.0962,28.5522a2.6219,2.6219,0,0,1-.2524-3.6772l3.4428-3.4429a1,1,0,0,1,1.4141,1.4141l-3.4429,3.4429c-.1186.1186-.0781.518.2529.8491L36.8618,43.49c.3316.3316.732.3721.8491.2525l6.0313-6.0313c.1186-.1186.0781-.518-.2529-.8491L27.1382,20.51c-.3311-.3311-.7305-.37-.8491-.2525l-.5235.5235a1,1,0,0,1-1.414-1.4141l.5234-.5234a2.6237,2.6237,0,0,1,3.6772.2519L44.9038,35.4478a2.622,2.622,0,0,1,.2525,3.6772L39.125,45.1563A2.2406,2.2406,0,0,1,37.5181,45.7964Z"/></g></svg>