<?xml version="1.0" ?><svg viewBox="0 0 64 64" xmlns="http://www.w3.org/2000/svg"><title/><g id="Outline"><path d="M32,59a22.9114,22.9114,0,0,1-15.7783-6.2646,1,1,0,0,1,1.373-1.4551A21,21,0,0,0,53,36c0-5.8486-2.43-11.6875-7.2207-17.3545a1,1,0,1,1,1.5273-1.291C52.4111,23.3921,55,29.6655,55,36A23.0259,23.0259,0,0,1,32,59Z"/><path d="M13.5586,49a.9992.9992,0,0,1-.8389-.4541A22.9107,22.9107,0,0,1,9,36C9,17.6177,30.6016,5.6235,31.5215,5.1221a.997.997,0,0,1,.957,0A58.9313,58.9313,0,0,1,44.74,14.5566a1,1,0,1,1-1.42,1.4082A58.908,58.908,0,0,0,32.001,7.1533C28.8281,9.0269,11,20.2607,11,36a20.9158,20.9158,0,0,0,3.3955,11.4541A1,1,0,0,1,13.5586,49Z"/><path d="M33,49H31a3.0033,3.0033,0,0,1-3-3V44H26a3.0033,3.0033,0,0,1-3-3V39a3.0033,3.0033,0,0,1,3-3h2V34a3.0033,3.0033,0,0,1,3-3h2a3.0033,3.0033,0,0,1,3,3v2h2a3.0033,3.0033,0,0,1,3,3v2a3.0033,3.0033,0,0,1-3,3H36v2A3.0033,3.0033,0,0,1,33,49ZM26,38a1.0009,1.0009,0,0,0-1,1v2a1.0009,1.0009,0,0,0,1,1h3a1,1,0,0,1,1,1v3a1.0009,1.0009,0,0,0,1,1h2a1.0009,1.0009,0,0,0,1-1V43a1,1,0,0,1,1-1h3a1.0009,1.0009,0,0,0,1-1V39a1.0009,1.0009,0,0,0-1-1H35a1,1,0,0,1-1-1V34a1.0009,1.0009,0,0,0-1-1H31a1.0009,1.0009,0,0,0-1,1v3a1,1,0,0,1-1,1Z"/></g></svg>