<?xml version="1.0" ?><svg style="enable-background:new 0 0 32 32;" version="1.1" viewBox="0 0 32 32" xml:space="preserve" xmlns="http://www.w3.org/2000/svg" xmlns:xlink="http://www.w3.org/1999/xlink"><g id="Guides"/><g id="_x32_0"/><g id="_x31_9"/><g id="_x31_8"/><g id="_x31_7"/><g id="_x31_6"/><g id="_x31_5"/><g id="_x31_4"/><g id="_x31_3"/><g id="_x31_2"/><g id="_x31_1"/><g id="_x31_0"/><g id="_x30_9"/><g id="_x30_8"/><g id="_x30_7"/><g id="_x30_6"/><g id="_x30_5"/><g id="_x30_4"/><g id="_x30_3"/><g id="_x30_2"/><g id="_x30_1"><g><path d="M23,2H9C7.3457031,2,6,3.3457031,6,5v18c0,1.6542969,1.3457031,3,3,3v3c0,0.5522461,0.4472656,1,1,1s1-0.4477539,1-1v-3h2    v3c0,0.5522461,0.4472656,1,1,1h4c0.5527344,0,1-0.4477539,1-1v-3h2v3c0,0.5522461,0.4472656,1,1,1s1-0.4477539,1-1v-3    c1.6542969,0,3-1.3457031,3-3V5C26,3.3457031,24.6542969,2,23,2z M9,4h14c0.5517578,0,1,0.4487305,1,1v3.0042114    l-5.7252808,0.0244141c-0.8347778-1.0144653-1.5033569-1.6738892-1.5784302-1.7468872    c-0.3886719-0.3759766-1.0039063-0.3759766-1.3925781,0c-0.0744019,0.0723877-0.7316895,0.7207031-1.5557251,1.7192993    L8,8.0255127V5C8,4.4487305,8.4482422,4,9,4z M16.0039063,8.4482422C17.5400391,10.1469727,20,13.4394531,20,16.1538086    C20,18.2744141,18.2060547,20,16,20s-4-1.7255859-4-3.8461914C12,13.2373047,14.6972656,9.8955078,16.0039063,8.4482422z M17,28    h-2v-2h2V28z M23,24h-5h-4H9c-0.5517578,0-1-0.4487305-1-1V10.0255737l4.2593994-0.0181274    C11.0764771,11.7938843,10,14.0036011,10,16.1538086C10,19.3774414,12.6914063,22,16,22s6-2.6225586,6-5.8461914    c0-2.144165-1.0704346-4.3476563-2.2493896-6.1314697L24,10.0042725V23C24,23.5512695,23.5517578,24,23,24z"/><path d="M14,16h1v1c0,0.5522461,0.4472656,1,1,1s1-0.4477539,1-1v-1h1c0.5527344,0,1-0.4477539,1-1s-0.4472656-1-1-1h-1v-1    c0-0.5522461-0.4472656-1-1-1s-1,0.4477539-1,1v1h-1c-0.5527344,0-1,0.4477539-1,1S13.4472656,16,14,16z"/></g></g></svg>