<?xml version="1.0" ?><svg viewBox="0 0 152.81 436.53" xmlns="http://www.w3.org/2000/svg"><title/><g data-name="Layer 2" id="Layer_2"><g data-name="blood, hospital, medical, transfusion, health, donation, care, donate" id="blood_hospital_medical_transfusion_health_donation_care_donate"><path d="M31.25,117.66a5.36,5.36,0,0,0,5.36-5.36V92.07a7.2,7.2,0,0,1,7.19-7.19H55.68a5.36,5.36,0,0,0,0-10.72H43.8A17.92,17.92,0,0,0,25.89,92.07V112.3A5.36,5.36,0,0,0,31.25,117.66Z"/><path d="M31.25,143.9a5.36,5.36,0,0,0,5.36-5.36V132.1a5.36,5.36,0,0,0-10.72,0v6.44A5.36,5.36,0,0,0,31.25,143.9Z"/><path d="M104.68,179.74C88,179.38,82.19,176,80.24,174a63.18,63.18,0,0,0-8.06-7,38.4,38.4,0,0,0-33.36-5.83l-.25.07a17.73,17.73,0,0,0-12.68,17v62.32A19.59,19.59,0,0,0,63.11,249H89.69a19.6,19.6,0,0,0,37.23-8.54V202.66A23,23,0,0,0,104.68,179.74Zm11.52,60.73a8.86,8.86,0,0,1-17.5,2,5.37,5.37,0,0,0-5.23-4.17H59.34a5.37,5.37,0,0,0-5.23,4.17,8.86,8.86,0,0,1-17.5-2V178.15a7,7,0,0,1,5-6.68l.2-.05a27.77,27.77,0,0,1,24.11,4.19,52,52,0,0,1,6.69,5.85c5.57,5.71,16,8.66,31.89,9a12.18,12.18,0,0,1,11.75,12.2Z"/><path d="M131,283.79v-4.52a24.62,24.62,0,0,0,21.83-24.43V73a24.63,24.63,0,0,0-24.61-24.6H81.76V40.88A20.79,20.79,0,1,0,55.6,20.8a5.36,5.36,0,1,0,10.72,0A10.09,10.09,0,1,1,76.4,30.89,5.36,5.36,0,0,0,71,36.25V48.37H24.6A24.63,24.63,0,0,0,0,73V254.84a24.63,24.63,0,0,0,19.17,24v5a17.7,17.7,0,0,0,8.93,15.35v132a5.36,5.36,0,0,0,5.36,5.36h20a5.36,5.36,0,0,0,5.36-5.36V388.43a5.36,5.36,0,0,0-10.72,0V425.8H38.82V301.49h9.29v39.84a5.36,5.36,0,0,0,10.72,0V299.14a17.71,17.71,0,0,0,8.93-15.35v-4.35H82.39v4.35a17.7,17.7,0,0,0,8.93,15.35v132a5.36,5.36,0,0,0,5.36,5.36h20a5.36,5.36,0,0,0,5.36-5.36V336.06a5.36,5.36,0,1,0-10.72,0V425.8H102V301.49h11.24A17.72,17.72,0,0,0,131,283.79Zm-73.94,0a7,7,0,0,1-7,7H36.87a7,7,0,0,1-7-7v-4.35H57Zm63.22,0a7,7,0,0,1-7,7H100.09a7,7,0,0,1-7-7v-4.35h27.15ZM87.75,268.72H24.6a13.9,13.9,0,0,1-13.88-13.88V73A13.89,13.89,0,0,1,24.6,59.09H128.2A13.9,13.9,0,0,1,142.09,73V254.84a13.9,13.9,0,0,1-13.89,13.88H87.75Z"/><path d="M53.47,358.29a5.36,5.36,0,0,0-5.36,5.36v1.59a5.36,5.36,0,0,0,10.72,0v-1.59A5.36,5.36,0,0,0,53.47,358.29Z"/><path d="M111.33,312.52v4.31a5.36,5.36,0,0,0,10.72,0v-4.31a5.36,5.36,0,0,0-10.72,0Z"/></g></g></svg>