<?xml version="1.0" ?><svg id="Appointment" viewBox="0 0 512 512" xmlns="http://www.w3.org/2000/svg"><circle cx="223.7983" cy="215.7292" r="16.4529" transform="translate(-61.1534 339.9361) rotate(-67.5)"/><circle cx="130.8293" cy="215.7292" r="16.4529"/><circle cx="316.7671" cy="215.7292" r="16.4529"/><circle cx="223.7983" cy="293.4321" r="16.4529" transform="translate(-132.9415 387.9034) rotate(-67.5)"/><circle cx="130.8293" cy="293.4321" r="16.4529"/><path d="M402.6875,254.4266V116.0352A25.9656,25.9656,0,0,0,376.751,90.0986h-51.13V62.3945h-13V90.0986H134.4746V62.3945h-13V90.0986h-51.13a25.9656,25.9656,0,0,0-25.9365,25.9366v31.8837a6.4758,6.4758,0,0,0,.501,2.5032v197.155a25.9655,25.9655,0,0,0,25.9365,25.9366H268.8589A100.9158,100.9158,0,1,0,402.6875,254.4266ZM70.8457,360.5137a12.9517,12.9517,0,0,1-12.9365-12.9366V154.4189H389.6875v96.01A100.9113,100.9113,0,0,0,266.4626,360.5137Zm351.9414,11.8828a1.5,1.5,0,0,1-1.5,1.5H391.8828V403.3a1.5,1.5,0,0,1-1.5,1.5H342.9746a1.5,1.5,0,0,1-1.5-1.5V373.8965H312.0713a1.4883,1.4883,0,0,1-.9922-.3831,1.5425,1.5425,0,0,1-.2085-.2263l-.0015-.0017a1.5319,1.5319,0,0,1-.1489-.248l-.0127-.0234a1.4709,1.4709,0,0,1-.0849-.2483c-.0044-.0178-.0122-.0343-.0162-.0523a1.4753,1.4753,0,0,1-.0351-.3169V324.9883a1.5,1.5,0,0,1,1.5-1.5h29.4033V294.085a1.5,1.5,0,0,1,1.5-1.5h47.4082a1.5,1.5,0,0,1,1.5,1.5v29.4033h29.4043a1.5,1.5,0,0,1,1.5,1.5Z"/></svg>