<?xml version="1.0" ?><svg viewBox="0 0 64 64" xmlns="http://www.w3.org/2000/svg"><title/><g id="Outline"><path d="M58.1577,35.1851c-4.5618-.728-9.198-1.2585-13.8086-1.603A13.9939,13.9939,0,0,0,45.3267,22.7a1,1,0,0,0-1.9034.6143,12.0084,12.0084,0,1,1-1.3086-2.774,1,1,0,1,0,1.6846-1.0781,13.9972,13.9972,0,0,0-24.1484,14.12c-4.6106.3445-9.2468.875-13.8086,1.603a.9991.9991,0,0,0-.83,1.1425L7.1865,50.1553A.9994.9994,0,0,0,8.1743,51a.9563.9563,0,0,0,.1577-.0127q1.4092-.2248,2.8213-.4228a1,1,0,1,0-.2773-1.98q-.9354.1311-1.8692.2739L7.1436,37.0059c4.55-.6974,9.1682-1.2026,13.7521-1.5135a13.9479,13.9479,0,0,0,22.2086,0c4.5839.3109,9.2021.8161,13.7521,1.5135l-1.8632,11.852a152.2477,152.2477,0,0,0-38.0913-.9961,1,1,0,0,0,.1982,1.99A150.3712,150.3712,0,0,1,55.668,50.9873.9563.9563,0,0,0,55.8257,51a.9994.9994,0,0,0,.9878-.8447l2.1743-13.8277A.9991.9991,0,0,0,58.1577,35.1851Z"/><path d="M31,36h2a3.0033,3.0033,0,0,0,3-3V31h2a3.0033,3.0033,0,0,0,3-3V26a3.0033,3.0033,0,0,0-3-3H36V21a3.0033,3.0033,0,0,0-3-3H31a3.0033,3.0033,0,0,0-3,3v2H26a3.0033,3.0033,0,0,0-3,3v2a3.0033,3.0033,0,0,0,3,3h2v2A3.0033,3.0033,0,0,0,31,36Zm-5-7a1.0013,1.0013,0,0,1-1-1V26a1.0013,1.0013,0,0,1,1-1h3a1,1,0,0,0,1-1V21a1.0013,1.0013,0,0,1,1-1h2a1.0013,1.0013,0,0,1,1,1v3a1,1,0,0,0,1,1h3a1.0013,1.0013,0,0,1,1,1v2a1.0013,1.0013,0,0,1-1,1H35a1,1,0,0,0-1,1v3a1.0013,1.0013,0,0,1-1,1H31a1.0013,1.0013,0,0,1-1-1V30a1,1,0,0,0-1-1Z"/></g></svg>