<?xml version="1.0" ?><svg id="Layer_1" style="enable-background:new 0 0 512 512;" version="1.1" viewBox="0 0 512 512" xml:space="preserve" xmlns="http://www.w3.org/2000/svg" xmlns:xlink="http://www.w3.org/1999/xlink"><style type="text/css">
	.st0{fill:#231F20;}
</style><path class="st0" d="M386.1,141.2l-7.1,7.1L386.1,141.2c-31.6-31.6-83-31.6-114.6,0l-19.1,19.1l-19.1-19.1  c-15.3-15.3-35.6-23.7-57.3-23.7c-21.6,0-42,8.4-57.3,23.7c-31.6,31.6-31.6,83,0,114.5l25.4,25.4c0,0,0,0,0,0s0,0,0,0l101.1,101.1  c2,2,4.5,2.9,7.1,2.9s5.1-1,7.1-2.9l126.6-126.6c15.3-15.3,23.7-35.6,23.7-57.3C409.9,176.9,401.4,156.5,386.1,141.2z M252.5,361.1  l-87-87l19.7-19.7l26.9,26.9c2,2,4.5,2.9,7.1,2.9s5.1-1,7.1-2.9l45.9-45.9l30.2,30.2c1.9,1.9,4.4,2.9,7.1,2.9h35.6L252.5,361.1z   M372,241.6l-6.9,6.9h-51.5l-34.3-34.3c-3.9-3.9-10.2-3.9-14.1,0l-45.9,45.9l-26.9-26.9c-3.9-3.9-10.2-3.9-14.1,0L151.4,260  L133,241.6c-23.8-23.8-23.8-62.5,0-86.3c11.5-11.5,26.8-17.9,43.1-17.9s31.6,6.3,43.1,17.9l26.2,26.2c1.9,1.9,4.4,2.9,7.1,2.9  s5.2-1.1,7.1-2.9l26.2-26.2c23.8-23.8,62.5-23.8,86.3,0l0,0c0,0,0,0,0,0c11.5,11.5,17.9,26.8,17.9,43.1  C389.9,214.8,383.5,230.1,372,241.6z"/></svg>