<?xml version="1.0" ?><svg viewBox="0 0 64 64" xmlns="http://www.w3.org/2000/svg"><title/><g id="Outline"><path d="M13.6479,26.3887a9.0423,9.0423,0,0,1,5.1739-15.3526,1,1,0,0,0-.2686-1.9814,10.9422,10.9422,0,0,0-6.3193,3.1338,11.0528,11.0528,0,0,0,0,15.6142l15.6206,15.62a1,1,0,1,0,1.4141-1.4141Z"/><path d="M54.1187,48.3989l-4.085-4.0849a10.9912,10.9912,0,0,0-2.3052-12.2452l-19.88-19.88a11.0322,11.0322,0,0,0-4.9492-2.8594,1,1,0,0,0-.5156,1.9326,9.0305,9.0305,0,0,1,4.0508,2.3408l.7131.7132-2.843,2.843a1,1,0,1,0,1.4141,1.4141l2.843-2.8431,2.8459,2.846-2.8427,2.8428a1,1,0,1,0,1.414,1.414L32.8213,19.99l2.8459,2.846-2.843,2.843a1,1,0,1,0,1.4141,1.4141l2.843-2.843,2.8462,2.8461-2.843,2.8431a1,1,0,1,0,1.414,1.414l2.8431-2.843,2.8459,2.846-2.8428,2.8427a1,1,0,1,0,1.4141,1.4141L45.6016,32.77l.7129.7129A9.0025,9.0025,0,0,1,47.939,44.0571a1,1,0,0,0,.18,1.17l4.5859,4.5859a1.0085,1.0085,0,0,1,0,1.4263l-1.42,1.42a1.01,1.01,0,0,1-1.4258,0l-4.5864-4.586a1.0026,1.0026,0,0,0-1.17-.18A9.0019,9.0019,0,0,1,33.5283,46.269a1,1,0,0,0-1.414,1.4141,10.9907,10.9907,0,0,0,12.2451,2.3052l4.0854,4.0849a3.007,3.007,0,0,0,4.2539,0l1.42-1.4194a3.0085,3.0085,0,0,0,0-4.2549Z"/></g></svg>