<?xml version="1.0" ?><svg data-name="Layer 1" id="Layer_1" viewBox="0 0 512 512" xmlns="http://www.w3.org/2000/svg"><path d="M474,57.35H38a5.83,5.83,0,0,0-5.83,5.83V384.4A5.83,5.83,0,0,0,38,390.22H198.86V443H159.81a5.83,5.83,0,0,0,0,11.66H352.19a5.83,5.83,0,0,0,0-11.66H313.13V390.22H474a5.83,5.83,0,0,0,5.83-5.82V63.18A5.83,5.83,0,0,0,474,57.35ZM301.47,443h-91V390.22h91Zm166.66-64.42H43.87V69H468.13Z"/><path d="M69.12,359.14H442.88a5.83,5.83,0,0,0,5.82-5.83V94.25a5.83,5.83,0,0,0-5.82-5.82H69.12a5.83,5.83,0,0,0-5.82,5.82V353.31A5.83,5.83,0,0,0,69.12,359.14ZM75,100.08h362.1v247.4H75Z"/><path d="M105.62,133.7h54.19a5.83,5.83,0,0,0,0-11.66H105.62a5.83,5.83,0,0,0,0,11.66Z"/><path d="M132.72,147.14h-27.1a5.83,5.83,0,0,0,0,11.65h27.1a5.83,5.83,0,0,0,0-11.65Z"/><path d="M123.62,171.46h-18a5.83,5.83,0,0,0,0,11.66h18a5.83,5.83,0,1,0,0-11.66Z"/><path d="M159.08,153a5.83,5.83,0,0,0,5.83,5.82H192a5.83,5.83,0,1,0,0-11.65H164.91A5.83,5.83,0,0,0,159.08,153Z"/><path d="M317.7,165.62a38.6,38.6,0,0,0-32.92,18.48,18.75,18.75,0,0,0-37.08-3.65l-4.33,20.27a21.89,21.89,0,0,0,2.19,15.06l10.74,20.54-3.91,3.73-11.07-9.57a27.88,27.88,0,0,0-20.42-8l-29.1.74a19.68,19.68,0,0,0,0,39.35l22.76.57,12.16,20.58a33.14,33.14,0,0,0,24.81,16.18,33.7,33.7,0,0,0,4,.23,33.06,33.06,0,0,0,23.9-10.18l46.43-48.06a38.56,38.56,0,0,0-8.19-76.24ZM271.09,281.81a21.7,21.7,0,0,1-34.3-4L223,254.4a5.84,5.84,0,0,0-4.87-2.87l-26-.65a8.05,8.05,0,0,1-7.81-8,8,8,0,0,1,7.81-8l29.1-.74c4.51-.34,8.8,1.6,12.23,4.93l15.33,13.28a5.8,5.8,0,0,0,7.83-.18l10.93-10.41a5.82,5.82,0,0,0,1.14-6.92l-12.84-24.54a10.3,10.3,0,0,1-1-7.12l4.32-20.28a6.92,6.92,0,0,1,8.06-5.51,7.12,7.12,0,0,1,5.84,8.26l-3.17,17.69a5.79,5.79,0,0,0,1.22,4.7l16.07,19.82a5.08,5.08,0,0,0,.69.7,38.6,38.6,0,0,0,21.83,13.37ZM317.7,231.1a26.92,26.92,0,1,1,26.9-26.92A26.94,26.94,0,0,1,317.7,231.1Z"/><path d="M355,133.24a83.48,83.48,0,0,0-118.1,0L182.12,188a83.53,83.53,0,0,0,0,118.1l3.41,3.4a83.51,83.51,0,0,0,118.1,0h0l54.79-54.8a83.51,83.51,0,0,0,0-118.09Zm-4.85,113.24-54.8,54.8v0a71.8,71.8,0,0,1-101.58,0l-3.43-3.41a71.83,71.83,0,0,1,0-101.6l54.81-54.79a71.8,71.8,0,0,1,101.58,0l3.43,3.41a71.81,71.81,0,0,1,0,101.59Z"/></svg>